<?xml version="1.0" encoding="UTF-8" standalone="no"?>
<svg
   xmlns:dc="http://purl.org/dc/elements/1.1/"
   xmlns:cc="http://creativecommons.org/ns#"
   xmlns:rdf="http://www.w3.org/1999/02/22-rdf-syntax-ns#"
   xmlns:svg="http://www.w3.org/2000/svg"
   xmlns="http://www.w3.org/2000/svg"
   xmlns:sodipodi="http://sodipodi.sourceforge.net/DTD/sodipodi-0.dtd"
   xmlns:inkscape="http://www.inkscape.org/namespaces/inkscape"
   height="320.5791pt"
   version="1.1"
   viewBox="0 0 499.0322 320.5791"
   width="499.0322pt"
   id="svg226"
   sodipodi:docname="white_noise.svg"
   inkscape:version="1.0.1 (c497b03c, 2020-09-10)">
  <metadata
     id="metadata230">
    <rdf:RDF>
      <cc:Work
         rdf:about="">
        <dc:format>image/svg+xml</dc:format>
        <dc:type
           rdf:resource="http://purl.org/dc/dcmitype/StillImage" />
        <dc:title />
      </cc:Work>
    </rdf:RDF>
  </metadata>
  <sodipodi:namedview
     pagecolor="#000000"
     bordercolor="#666666"
     borderopacity="1"
     objecttolerance="10"
     gridtolerance="10"
     guidetolerance="10"
     inkscape:pageopacity="1"
     inkscape:pageshadow="2"
     inkscape:window-width="1440"
     inkscape:window-height="855"
     id="namedview228"
     showgrid="false"
     inkscape:pagecheckerboard="false"
     inkscape:zoom="0.91831405"
     inkscape:cx="268.51775"
     inkscape:cy="192.69449"
     inkscape:window-x="0"
     inkscape:window-y="23"
     inkscape:window-maximized="1"
     inkscape:current-layer="svg226"
     inkscape:document-rotation="0"
     inkscape:snap-bbox="true"
     inkscape:snap-bbox-midpoints="true" />
  <defs
     id="defs30">
    <marker
       style="overflow:visible"
       id="marker1700"
       refX="0"
       refY="0"
       orient="auto"
       inkscape:stockid="Arrow1Lend"
       inkscape:isstock="true">
      <path
         transform="matrix(-0.8,0,0,-0.8,-10,0)"
         style="fill:#ffffff;fill-opacity:1;fill-rule:evenodd;stroke:#ffffff;stroke-width:1pt;stroke-opacity:1"
         d="M 0,0 5,-5 -12.5,0 5,5 Z"
         id="path1698" />
    </marker>
    <marker
       style="overflow:visible"
       id="Arrow1Lend"
       refX="0"
       refY="0"
       orient="auto"
       inkscape:stockid="Arrow1Lend"
       inkscape:isstock="true">
      <path
         transform="matrix(-0.8,0,0,-0.8,-10,0)"
         style="fill:#ffffff;fill-opacity:1;fill-rule:evenodd;stroke:#ffffff;stroke-width:1pt;stroke-opacity:1"
         d="M 0,0 5,-5 -12.5,0 5,5 Z"
         id="path1363" />
    </marker>
    <marker
       style="overflow:visible"
       id="Arrow2Send"
       refX="0"
       refY="0"
       orient="auto"
       inkscape:stockid="Arrow2Send"
       inkscape:isstock="true">
      <path
         transform="matrix(-0.3,0,0,-0.3,0.69,0)"
         d="M 8.7185878,4.0337352 -2.2072895,0.01601326 8.7185884,-4.0017078 c -1.7454984,2.3720609 -1.7354408,5.6174519 -6e-7,8.035443 z"
         style="fill:#ffffff;fill-opacity:1;fill-rule:evenodd;stroke:#ffffff;stroke-width:0.625;stroke-linejoin:round;stroke-opacity:1"
         id="path1393" />
    </marker>
    <style
       type="text/css"
       id="style28">
*{stroke-linecap:square;stroke-linejoin:round;}
  </style>
    <clipPath
       clipPathUnits="userSpaceOnUse"
       id="clipPath531">
      <rect
         style="fill:none;fill-opacity:0;stroke:#ffffff;stroke-width:2.25"
         id="rect533"
         width="75.128441"
         height="321.26218"
         x="69.938118"
         y="74.207039" />
    </clipPath>
  </defs>
  <g
     id="line2d_1"
     style="stroke:#ffffff;stroke-width:0.382644"
     transform="matrix(6.8298301,0,0,1,-491.74777,-90.756071)"
     clip-path="url(#clipPath531)">
    <path
       clip-path="url(#p7ff5b81e1d)"
       d="m 72,163.547 0.4464,22.105 0.4464,10.103 0.4464,-95.471 0.4464,119.961 0.4464,12.192 0.4464,-12.281 0.4464,152.852 0.4464,-185.504 0.4464,84.92 0.4464,-62.236 0.4464,69.444 0.4464,-123.277 0.8928,126.415 0.4464,-119.066 0.4464,28.578 0.4464,-24.189 0.8928,72.343 0.4464,38.878 0.4464,-45.08 0.4464,-87.841 0.4464,105.396 0.4464,-42.423 0.4464,12.798 0.4464,26.636 0.4464,-85.216 0.4464,1.829 0.4464,76.66 0.4464,-42.738 0.4464,33.607 0.4464,-48.386 0.4464,-3.69 0.4464,15.04 0.4464,38.395 0.4464,-76.654 0.4464,85.627 0.4464,-71.299 0.4464,37.519 0.4464,-51.523 0.4464,4.248 0.4464,43.584 0.4464,-72.972 0.4464,112.503 0.4464,-76.865 0.4464,23.609 0.4464,50.348 0.4464,3.643 0.4464,-59.956 0.4464,17.075 0.4464,54.959 0.4464,-74.809 0.4464,81.844 0.4464,-10.437 0.4464,-40.576 0.4464,5.981 0.4464,-40.638 0.4464,-3.36 0.4464,28.123 0.4464,-74.566 0.4464,49.117 0.4464,78.467 0.4462,-31.467 0.447,28.444 0.446,-30.338 0.446,25.855 0.447,-29.001 0.446,-40.87 0.447,-28.643 0.446,64.382 0.446,-118.7791 0.447,183.6941 0.446,58.853 0.447,-60.36 0.446,-38.468 0.446,-17.919 0.447,-3.18 0.446,3.265 0.447,29.032 0.446,-38.171 0.446,-77.887 0.447,36.67 0.446,95.509 0.447,-39.605 0.446,-10.903 0.446,36.092 0.447,2.378 0.446,-44.622 0.447,-23.68 0.446,6.09 0.446,37.962 0.447,28.391 0.446,-2.112 0.447,8.366 0.892,-39.193 0.447,5.219 0.446,-20.613 0.447,64.895 0.446,-31.302 0.446,-55.892 0.447,26.839 0.446,-31.355 0.447,54.72 0.446,0.477 0.446,-19.757 0.447,18.058 0.446,11.216 0.447,-81.458 0.446,48.232 0.446,32.566 0.447,-23.758 0.446,66.605 0.447,-71.982 0.446,1.778 0.446,24.721 0.447,-2.659 0.446,11.629 0.447,-42.355 0.446,77.907 0.446,-86.711 0.893,22.41 0.447,4.524 0.446,-32.263 0.446,12.951 0.447,40.864 0.446,12.857 0.447,-78.137 0.446,93.94 0.446,-29.87 0.447,-107.907 0.446,76.183 0.447,-101.618 0.446,149.51 0.446,-44.27 0.447,70.396 0.446,-47.926 0.447,-111.794 0.446,181.586 0.446,-142.683 0.447,-20.792 0.446,28.099 0.447,91.685 0.446,-71.44 0.446,82.501 0.447,-122.783 0.446,-0.075 0.447,125.301 0.446,-52.344 0.446,8.937 0.447,77.237 0.446,-123.97 0.447,54.846 0.446,-80.347 0.446,91.965 0.447,-20.005 0.446,-89.277 0.447,16.434 0.446,66.6 0.446,-63.276 0.447,-3.613 0.446,54.436 0.447,-93.265 0.446,97.308 0.446,30.174 0.447,-0.854 0.446,-65.382 0.447,71.431 0.446,-24.176 0.446,-42.961 0.447,1.543 0.446,-19.049 0.447,22.207 0.446,45.804 0.446,-79.468 0.447,32.912 0.446,120.819 0.447,-49.067 0.446,-32.144 0.446,-43.929 0.447,104.486 0.446,-129.932 0.447,66.555 0.446,-30.434 0.446,176.51 0.447,-171.304 0.446,24.901 0.447,-46.346 0.446,29.502 0.446,-1.774 0.893,-18.687 0.447,-22.431 0.446,63.989 0.446,-20.222 0.447,38.565 0.446,-91.145 0.447,96.557 0.446,1.449 0.446,-127.033 0.447,38.735 0.446,129.701 0.447,-140.862 0.446,6.734 0.446,112.969 0.447,-60.887 0.446,-35.415 0.447,-0.3 0.446,81.453 0.893,-115.252 0.446,-8.769 0.447,18.448 0.446,8.685 0.446,37.581 0.447,-4.418 0.446,43.699 0.447,-49.213 0.446,48.897 0.446,34.769 0.447,-83.35 0.446,-10.021 0.447,-31.853 0.446,23.553 0.446,-54.4 0.447,81.639 0.446,57.063 0.447,-61.515 0.446,-18.859 0.446,6.606 0.447,15.47 0.446,21.052 0.447,37.033 0.446,-21.43 0.446,-51.689 0.447,-0.174 0.446,36.879 0.447,-53.547 0.446,63.566 0.446,-18.917 0.447,9.371 0.446,5.3 0.447,-29.036 0.446,-46.803 0.446,65.825 0.447,-9.604 0.446,-41.529 0.447,-3.188 0.446,3.907 0.446,-13.652 0.447,39.54 0.446,5.528 0.447,29.486 0.892,24.205 0.447,-20.213 0.446,-52.21 0.447,53.003 0.446,-42.167 0.446,-30.112 0.447,86.356 0.446,-41.504 0.447,-11.856 0.446,57.52 0.446,-48.21 0.447,-87.617 0.446,149.924 0.893,-74.662 0.446,-5.989 0.447,-18.354 0.446,87.954 0.447,27.525 0.446,-112.707 0.446,118.453 0.447,-79.117 0.446,21.172 0.447,-48.324 0.446,-1.876 0.893,54.73 0.893,-28.303 0.446,-60.261 0.446,97.358 0.447,10.379 0.446,-56.501 0.893,45.195 0.446,-38.037 0.447,-96.586 0.446,130.034 0.447,-32.804 0.446,61.322 0.446,-23.883 0.447,-66.679 0.446,96.922 0.893,-31.069 0.446,16.796 0.447,-56.158 0.446,33.604 0.447,-33.273 0.446,-60.44 0.446,11.318 0.447,15.295 0.446,8.213 0.447,1.898 0.446,68.333 0.446,-54.979 0.447,50.724 0.446,-116.762 0.447,153.873 0.446,-35.119 0.446,5.696 0.447,-82.02 0.446,-20.769 0.447,74.499 0.446,-40.168 0.893,27.223 0.446,29.018 0.447,-36.007 0.446,88.384 0.446,-69.871 0.447,-7.508 0.446,28.73 0.447,-93.426 0.446,48.84 0.446,19.519 0.447,29.097 0.446,-33.268 0.447,37.214 0.446,-26.671 0.446,-19.491 0.447,48.636 0.446,-51.281 0.447,58.298 0.446,-100.417 0.446,43.79 0.447,58.618 0.446,-76.938 0.447,50.567 0.446,-27.111 0.446,-11.801 0.447,-26.189 0.446,35.047 0.447,-59.592 0.446,66.52 0.446,22.808 0.447,-35.12 0.446,31.579 0.447,-96.054 0.446,15.473 0.446,0.968 0.447,24.277 0.446,82.794 0.447,-54.437 0.446,9.491 0.446,-0.141 0.447,47.266 0.446,-3.874 0.447,-66.996 0.446,69.586 0.446,0.666 0.893,-56.999 0.447,106.159 0.446,-150.621 0.446,35.026 0.447,19.173 0.446,-25.199 0.447,16.98 0.446,-38.405 0.446,-70.353 0.447,60.659 0.446,-51.632 0.447,125.76 0.446,-9.78 0.446,45.342 0.893,-81.556 0.447,42.637 0.446,66.129 0.446,-105.65 0.447,78.633 0.446,-84.467 0.447,12.022 0.446,35.765 0.446,-46.881 0.447,58.801 0.446,26.687 0.447,-22.757 0.446,-34.389 0.446,-46.182 0.447,67.387 0.446,-39.893 0.447,25.369 0.446,47.468 0.446,-43.913 0.447,-25.598 0.446,31.379 0.447,-60.838 0.446,99.308 0.446,-110.83 0.893,61.01 0.447,7.216 0.446,30.342 0.446,-57.516 0.447,-37.35 0.446,100.807 0.447,-3.275 0.446,-25.79 0.446,-40.216 0.447,3.726 0.446,-16.955 0.447,-27.499 0.446,51.416 0.446,-62.516 0.447,90.441 0.446,-43.834 0.447,66.712 0.446,-118.862 0.446,30.9 0.447,13.315 0.446,7.64 0.447,74.164 0.446,22.814 0.893,-56.159 0.446,-44.743 0.447,-7.329 0.446,45.909 0.446,14.122 0.447,3.403 0.446,7.966 0.447,-89.663 0.446,91.88 0.446,-103.879 0.447,139.778 0.446,-29.272 0.447,19.93 0.446,-98.4 0.446,3.982 0.893,108.281 0.447,-29.99 0.446,-145.837 0.446,43.054 0.447,19.359 0.446,66.886 0.447,-2.853 0.446,-11.105 0.446,-77.793 0.447,33.052 0.446,-10.708 0.893,84.872 0.446,5.914 0.447,-29.148 0.446,-47.477 0.447,66.745 0.446,7.899 0.446,-63.47 0.447,12.928 0.446,-67.294 0.447,-1.957 0.446,159.016 0.446,-172.724 0.447,71.177 0.446,-29.401 0.447,62.547 0.446,10.469 0.446,20.344 0.447,-10.05 0.446,-56.45 0.447,10.337 0.446,30.162 0.446,-45.847 0.447,-66.028 0.446,-1.779 0.447,83.282 0.446,-123.1913 0.446,115.4793 0.447,-84.859 0.446,-17.071 0.447,165.079 0.446,-64.183 0.446,48.302 0.447,-73.319 0.446,34.263 0.447,-88.671 0.446,49.2 0.893,45.432 0.446,56.226 0.447,-70.466 0.446,-46.454 0.446,125.494 0.447,-74.601 0.446,-9.101 0.447,58.65 0.446,-50.294 0.446,-13.647 0.447,-19.783 0.446,12.191 0.447,-39.363 0.446,81.19 0.446,5.551 0.447,-62.368 0.446,44.483 0.447,8.623 0.446,-71.85 0.446,61.941 0.447,-15.464 0.446,75.849 0.447,-55.423 0.446,-19.523 0.446,10.198 0.447,-51.322 0.446,92.552 0.447,-113.59 0.446,114.31 0.446,26.253 0.447,-116.472 0.446,56.555 0.447,-55.146 0.446,63.07 0.446,25.637 0.447,-72.406 0.446,54.783 0.447,-67.546 0.446,-0.297 0.446,-38.898 0.447,38.601 0.893,129.653 0.892,-59.586 0.893,-89.876 0.447,70.857 0.446,20.753 0.446,-15.576 0.447,-75.333 0.446,51.333 0.447,-63.665 0.446,109.25 0.446,-48.595 0.447,-32.714 0.446,85.483 0.447,-47.553 0.446,-9.472 0.446,72.462 0.447,-30.507 0.446,-9.996 0.447,-65.433 0.446,89.176 0.446,-62.704 0.447,-5.404 0.446,74.262 0.447,-39.05 0.446,-12.768 0.446,65.186 0.447,-99.771 0.446,62.617 0.447,-45.211 0.446,62.495 0.446,24.425 0.447,-85.906 0.446,37.134 0.447,13.003 0.446,-43.734 0.446,42.889 0.447,-77.562 0.446,95.412 0.447,7.35 0.446,-37.429 0.446,-70.595 0.447,53.167 0.446,68.846 0.447,-74.22 0.446,-5.129 0.446,65.541 0.447,-86.771 0.446,72.877 0.447,9.105 0.446,-79.474 0.446,-39.459 0.447,170.78 0.893,-141.844 0.446,106.855 0.446,-85.09 0.447,41.547 0.446,-6.503 0.447,-9.264 0.446,83 0.446,-89.158 0.447,-29.277 0.446,0.621 0.447,84.3 0.446,-23.432 0.893,-67.022 0.446,51.23 0.447,-19.734 0.446,19.635 0.446,-21.699 0.447,-53.942 0.446,80.113 0.447,-108.239 0.446,56.211 0.446,-0.169 0.447,68.031 0.446,-38.83 0.447,28.861 0.892,-49.948 0.447,4.176 0.446,6.194 0.893,60.569 0.446,1.941 0.447,-83.965 0.446,51.881 0.447,38.872 0.446,-7.065 0.446,-40.716 0.447,-56.909 0.446,152.095 0.447,-102.715 0.446,-38.737 0.446,58.976 0.893,27.238 0.447,42.31 0.446,-103.125 0.446,26.919 0.447,-1.806 0.446,-11.855 0.447,14.014 0.446,39.127 0.446,-90.507 0.447,-4.632 0.446,12.954 0.447,117.029 0.446,-138.669 0.446,68.107 0.447,10.314 0.446,13.802 0.447,-65.413 0.446,105.485 0.446,-102.546 0.447,4.802 0.446,25.038 0.447,55.937 0.446,-81.206 0.446,5.621 0.447,-1.068 0.446,57.15 0.447,-7.557 0.446,-72.31 0.446,98.389 0.447,5.784 0.446,-148.786 0.447,68.135 0.446,25.242 0.446,-36.382 0.893,46.815 0.447,-1.191 0.446,-15.079 0.446,-41.459 0.447,48.741 0.446,21.224 0.447,14.221 0.446,-31.786 0.446,-74.151 0.447,141.981 0.446,-55.053 0.893,43.349 0.446,-119.019 0.447,73.15 0.446,54.339 0.447,-78.232 0.446,11.6 0.446,-3.971 0.447,107.615 0.446,-150.099 0.447,-23.308 0.446,86.144 0.446,-37.551 0.447,58.5 0.446,-13.571 0.447,-19.177 0.446,34.642 0.446,-58.81 0.447,46.196 0.446,-4.278 0.447,-39.825 0.446,11.096 0.446,-20.677 0.893,48.404 0.447,-20.745 0.446,-33.211 0.446,-42.99 0.447,69.638 0.446,13.207 0.447,-2.163 0.446,-1.443 0.446,-11.151 0.447,14.5 0.446,-24.09 0.447,-1.921 0.446,-36.455 0.446,91.013 0.447,-90.773 0.446,41.318 0.447,-63.718 0.446,66.607 0.446,-46.991 0.447,60.358 0.446,-29.919 0.447,53.754 0.446,-10.2 0.446,-42.507 0.447,55.225 0.446,11.57 0.447,-37.841 0.446,-64.528 0.446,27.564 0.447,51.313 0.446,-33.701 0.447,-14.49 0.446,98.711 0.446,-99.619 0.447,46.234 0.446,-62.36 0.447,31.023 0.446,-74.062 0.446,164.413 0.447,13.643 0.446,2.524 0.447,-92.901 0.446,30.234 0.446,-16.892 0.447,-60.698 0.446,46.217 0.447,-14.76 0.446,36.065 0.446,-72.588 0.447,59.198 0.446,20.758 0.447,-36.62 0.446,57.984 0.446,-19.373 0.447,-60.701 0.446,0.074 0.447,11.519 0.446,5.742 0.446,107.227 0.447,-174.53 0.446,-13.095 0.447,49.784 0.446,32.704 0.446,62.922 0.893,-142.02 0.447,130.207 0.446,-75.031 0.446,74.253 0.447,-75.58 0.446,-27.282 0.447,99.534 0.446,-27.496 0.446,-3.34 0.447,-69.009 0.893,55.541 0.446,-30.196 0.446,42.935 0.447,-46.449 0.446,64.163 0.447,-33.865 0.446,15.425 0.446,-45.766 0.447,4.329 0.446,82.786 0.893,-115.421 0.893,74.938 0.446,-8.692 0.447,104.39 0.446,-123.672 0.446,-15.859 0.447,59.872 0.893,15.358 0.446,-89.343 0.446,-18.356 0.893,149.376 0.447,-110.211 0.446,-11.547 0.893,34.601 0.446,-94.713 0.447,65.024 0.446,-7.866 0.446,21.493 0.447,41.272 0.446,-6.975 0.447,2.3 0.446,87.803 0.446,-197.956 0.447,107.736 0.446,-84.613 0.447,132.625 0.446,-98.24 0.446,35.742 0.447,-47.453 0.893,83.429 0.446,69.318 0.446,-110.324 0.447,-13.502 0.446,37.997 0.447,-50.113 0.446,76.389 0.446,-99.135 0.447,32.875 0.446,21.958 0.447,-93.334 0.446,87.442 0.446,26.068 0.447,-73.657 0.446,42.383 0.447,-50.653 0.446,69.494 0.446,-104.785 0.447,195.863 0.893,-106.935 0.446,-15.872 0.446,8.704 0.447,41.928 0.446,-21.706 0.447,-11.413 0.446,-50.014 0.446,71.371 0.447,-21.7 0.446,59.011 0.447,-133.947 0.446,-0.89 0.893,56.28 0.446,-11.676 0.447,49.413 0.446,2.916 0.446,-32.129 0.447,12.227 0.446,-33.09 0.447,88.869 0.446,-73.019 0.446,63.034 0.447,-78.824 0.446,-24.319 0.447,31.055 0.446,-0.354 0.446,16.058 0.447,-1.922 0.446,65.128 0.447,-66.109 0.446,59.13 0.446,-126.859 0.447,170.488 0.446,-136.092 0.447,77.109 0.446,-84.079 1.339,104.089 0.447,-85.825 0.446,30.198 0.446,-14.788 0.447,17.73 0.446,56.67 0.447,-70.481 0.446,11.527 0.446,83.47 0.447,-31.971 0.446,-21.199 0.893,-59.3 0.446,87.829 0.447,-14.018 0.446,-58.056 0.447,2.099 0.446,-50.568 0.446,105.655 0.447,-29.224 0.446,41.555 0.447,-7.696 0.446,-74.984 0.446,71.597 0.447,-98.76 0.446,94.739 0.447,-75.203 0.446,109.287 0.446,-105.28 0.447,59.535 0.893,-49.401 0.446,-52.024 0.446,95.491 0.447,-45.858 0.446,9.947 0.447,65.53 0.446,6.333 0.446,-126.778 0.447,78.204 0.893,-32.387 0.446,22.242 0.446,9.299 0.447,37.433 0.446,-19.909 0.447,-13.242 0.446,10.625 0.446,0.932 0.893,-51.477 0.447,47.963 0.446,-60.582 0.446,99.27 0.447,-17.069 0.446,23.07 0.447,13.395 0.446,-169.318 0.446,60.953 0.447,0.862 0.446,-19.845 0.447,62.947 0.446,-19.13 0.446,54.183 0.447,-27.856 0.446,-77.172 0.447,11.603 0.446,16.272 0.446,59.336 0.447,-29.842 0.446,112.974 0.447,-77.33 0.446,-57.707 0.446,17.602 0.447,-28.251 0.446,10.702 0.447,3.639 0.446,-22.117 0.446,57.873 0.447,15.697 0.446,4.932 0.447,-95.154 0.446,-10.375 0.446,87.387 0.893,-35.499 0.447,-26.81 0.892,62.319 0.447,1.442 0.446,-63.015 0.893,61.24 0.446,-13.495 0.447,-31.51 0.446,74.123 0.893,49.292 0.446,-38.83 0.447,-8.051 0.446,-37.678 0.447,-68.468 0.446,-22.325 0.446,78.19 0.447,138.375 0.446,-155.243 0.447,-17.217 0.446,63.656 0.446,-43.539 0.447,19.545 0.446,-12.675 0.447,-1.289 0.446,42.838 v 0"
       style="fill:none;stroke:#ffffff;stroke-width:0.191322"
       id="path38" />
  </g>
  <defs
     id="defs224">
    <clipPath
       id="p7ff5b81e1d">
      <rect
         height="345.60001"
         width="446.39999"
         x="72"
         y="43.200001"
         id="rect221" />
    </clipPath>
  </defs>
  <g
     id="g930"
     transform="translate(-60.057984,-98.923212)">
    <path
       style="fill:none;stroke:#ffffff;stroke-width:2.25;stroke-linecap:butt;stroke-linejoin:miter;stroke-miterlimit:4;stroke-dasharray:none;stroke-opacity:1;marker-end:url(#marker1700)"
       d="M 193.56123,405.90689 H 393.65618"
       id="path535" />
    <text
       xml:space="preserve"
       style="font-style:normal;font-weight:normal;font-size:48px;line-height:1.25;font-family:sans-serif;fill:#ffffff;fill-opacity:1;stroke:none;stroke-width:0.75"
       x="405.90692"
       y="418.9743"
       id="text1728"><tspan
         sodipodi:role="line"
         id="tspan1726"
         x="405.90692"
         y="418.9743"
         style="font-style:oblique;font-variant:normal;font-weight:500;font-stretch:normal;font-size:48px;font-family:'CMU Sans Serif';-inkscape-font-specification:'CMU Sans Serif Medium Oblique';fill:#ffffff;stroke-width:0.75">t</tspan></text>
  </g>
</svg>
